<?xml version="1.0" standalone="no"?>
<!DOCTYPE svg PUBLIC "-//W3C//DTD SVG 20010904//EN"
 "http://www.w3.org/TR/2001/REC-SVG-20010904/DTD/svg10.dtd">
<svg version="1.0" xmlns="http://www.w3.org/2000/svg"
 width="1080.000000pt" height="1920.000000pt" viewBox="0 0 1080.000000 1920.000000"
 preserveAspectRatio="xMidYMid meet">

<g transform="translate(0.000000,1920.000000) scale(0.100000,-0.100000)"
fill="#000000" stroke="none">
<path d="M2431 11477 c-6 -6 -11 -8 -11 -5 0 4 -25 -2 -55 -12 -30 -10 -55
-17 -55 -14 0 2 -11 -3 -25 -12 -20 -13 -25 -13 -25 -3 0 12 -2 12 -9 0 -5 -7
-14 -10 -20 -7 -7 5 -10 2 -9 -6 2 -8 -6 -13 -19 -12 -13 1 -23 -3 -23 -8 0
-5 -4 -6 -10 -3 -5 3 -10 1 -10 -6 0 -7 -3 -10 -6 -7 -12 13 -320 -151 -344
-182 -3 -4 -16 -13 -29 -19 -29 -16 -178 -149 -248 -222 -73 -77 -173 -202
-173 -216 0 -7 -4 -13 -10 -13 -5 0 -10 -6 -10 -14 0 -8 -3 -16 -7 -18 -5 -1
-17 -21 -28 -43 -11 -22 -22 -42 -25 -45 -11 -10 -60 -119 -60 -132 0 -8 -4
-18 -9 -23 -13 -13 -66 -176 -81 -245 -6 -30 -16 -68 -20 -85 -5 -16 -15 -106
-21 -199 -10 -133 -10 -206 0 -340 7 -93 16 -188 21 -210 32 -150 46 -203 77
-296 29 -87 124 -292 144 -310 3 -3 20 -30 38 -60 19 -30 36 -57 40 -60 3 -3
24 -27 45 -55 86 -109 291 -294 426 -385 12 -8 28 -20 34 -25 48 -45 312 -179
421 -214 39 -12 79 -27 90 -31 39 -18 264 -59 385 -70 52 -5 147 -14 210 -20
178 -17 4441 -19 4620 -2 74 7 196 17 270 22 74 5 173 16 220 24 47 8 119 20
160 27 41 6 80 15 85 19 6 4 25 11 43 15 18 4 45 13 60 21 15 8 37 14 50 14
12 0 22 5 22 10 0 6 6 10 13 10 16 0 263 126 277 141 3 3 23 16 45 29 22 13
46 30 53 37 7 7 16 13 20 13 4 0 21 13 39 28 17 15 47 38 65 52 49 37 223 209
257 255 139 183 261 403 312 560 87 268 117 572 84 875 -9 91 -21 173 -26 182
-5 9 -9 26 -9 37 0 12 -4 29 -9 39 -5 9 -17 44 -27 77 -10 33 -21 65 -24 70
-4 6 -15 33 -25 60 -10 28 -21 52 -25 55 -3 3 -17 30 -29 60 -30 70 -142 235
-219 321 -94 106 -250 246 -345 310 -48 32 -92 59 -97 59 -6 0 -10 5 -10 10 0
6 -4 10 -10 10 -5 0 -33 14 -62 31 -29 17 -54 31 -56 30 -1 -1 -29 13 -63 29
-33 17 -68 30 -77 28 -9 -1 -21 0 -27 3 -23 14 -180 62 -213 65 -33 3 -34 2
-16 -12 11 -9 13 -12 5 -8 -9 5 -12 3 -7 -4 4 -7 11 -12 16 -12 5 0 21 -5 37
-12 15 -6 30 -12 33 -13 55 -19 250 -114 250 -122 0 -5 17 -19 38 -31 21 -11
54 -36 73 -54 19 -18 53 -48 74 -66 22 -18 33 -30 25 -27 -8 4 3 -11 25 -32
22 -21 47 -47 55 -58 14 -19 14 -19 -6 -5 -11 8 -4 -1 15 -20 43 -42 71 -77
54 -66 -7 4 -13 3 -13 -3 0 -5 4 -12 10 -16 5 -3 19 -20 32 -37 12 -17 16 -28
9 -23 -8 4 0 -17 16 -47 21 -37 26 -55 17 -55 -7 0 -11 4 -8 8 2 4 0 10 -4 13
-22 13 -3 -34 32 -82 31 -43 36 -56 26 -65 -10 -9 -11 -9 -6 1 4 6 3 12 -2 12
-5 0 -21 18 -35 39 -53 79 -177 218 -261 291 -210 181 -448 299 -728 362
l-103 23 -2615 0 c-2943 0 -2651 8 -2905 -77 -276 -92 -530 -263 -707 -477
-105 -127 -133 -165 -130 -174 1 -5 -2 -6 -8 -2 -11 7 -10 11 34 75 29 43 44
86 24 74 -4 -3 -6 -9 -4 -13 3 -4 -1 -8 -7 -8 -9 0 -3 19 15 54 15 30 22 51
15 47 -6 -4 -2 4 9 17 12 13 30 38 40 54 18 30 18 30 -1 16 -11 -8 5 12 35 44
30 33 44 50 30 40 -24 -19 -24 -19 -10 -1 8 11 33 37 55 59 22 21 33 36 25 32
-8 -3 1 6 20 22 19 15 50 43 69 61 19 18 53 44 77 58 24 14 44 30 44 36 0 5 4
7 9 4 4 -3 16 3 26 14 10 11 21 20 25 20 4 0 47 19 96 42 49 23 91 42 94 43 6
2 56 22 80 32 8 3 18 6 21 5 3 0 6 5 6 13 0 18 -32 26 -46 12z m24 -6 c3 -5 2
-12 -3 -15 -5 -3 -9 1 -9 9 0 17 3 19 12 6z m5670 -183 c378 -90 681 -285 906
-584 38 -50 69 -94 69 -97 0 -3 11 -22 24 -42 25 -36 25 -72 1 -72 -8 0 -12 4
-9 8 2 4 0 11 -6 14 -6 4 -9 1 -8 -6 2 -8 -7 -13 -22 -14 -15 -1 -24 -6 -22
-14 1 -7 -2 -10 -8 -6 -6 3 -8 10 -6 14 6 10 -40 8 -50 -2 -4 -3 3 -4 15 -2
12 2 19 0 17 -4 -3 -4 -23 -7 -46 -6 -22 1 -44 -3 -50 -9 -5 -8 -43 -12 -98
-11 -87 1 -91 2 -115 31 -20 24 -33 30 -61 29 -19 0 -38 -4 -42 -7 -4 -4 3 -6
14 -3 12 2 24 0 26 -4 3 -4 -36 -6 -85 -6 -50 0 -92 -2 -95 -7 -2 -4 5 -5 16
-3 11 2 18 1 16 -3 -7 -11 -108 -8 -126 3 -8 5 -22 10 -31 10 -9 0 -24 6 -33
14 -14 12 -17 12 -14 0 2 -10 -13 -13 -69 -13 -39 0 -70 -3 -67 -7 2 -4 17 -5
34 -4 16 1 28 0 26 -4 -3 -4 -31 -6 -63 -6 -39 1 -64 -3 -76 -14 -14 -12 -18
-12 -15 -2 2 9 -7 15 -24 16 -15 1 -25 -2 -22 -7 3 -4 9 -6 14 -3 5 3 11 1 15
-4 7 -12 -26 -6 -57 10 -13 7 -23 11 -23 10 0 -2 -12 0 -28 4 -15 4 -33 3 -40
-2 -6 -5 -38 -9 -70 -8 -32 0 -61 -3 -63 -7 -3 -5 -11 -5 -17 -1 -17 10 -57
12 -63 2 -2 -4 5 -6 16 -4 11 2 18 1 16 -4 -6 -9 -67 -8 -83 2 -6 4 -14 4 -17
-1 -2 -4 -41 -8 -86 -7 -45 1 -83 -2 -86 -6 -2 -5 5 -6 16 -4 11 2 18 1 16 -4
-3 -4 -32 -7 -66 -6 -34 1 -63 -2 -66 -7 -3 -5 -11 -5 -17 -1 -15 9 -97 11
-92 2 3 -4 18 -5 35 -4 17 1 28 0 25 -3 -9 -9 -95 -9 -89 -1 2 4 -1 11 -7 15
-7 4 -9 3 -5 -4 3 -6 2 -13 -3 -16 -5 -4 -13 -2 -16 4 -4 7 -12 7 -18 2 -7 -4
-52 -8 -100 -7 -49 0 -91 -3 -93 -7 -3 -4 5 -5 16 -3 11 2 19 1 16 -3 -2 -4
-49 -7 -103 -7 -54 1 -103 -3 -110 -7 -7 -5 -14 -4 -18 2 -5 8 -13 6 -27 -7
-13 -12 -18 -13 -16 -4 3 15 -49 24 -58 10 -2 -4 5 -6 17 -4 12 2 19 1 15 -3
-10 -9 -96 -10 -90 -1 2 4 0 11 -6 14 -6 4 -9 1 -8 -5 2 -7 -5 -14 -15 -15 -9
-2 -15 1 -12 5 3 5 0 12 -6 16 -7 4 -9 3 -5 -4 3 -6 2 -13 -3 -16 -5 -4 -13
-2 -16 4 -4 7 -12 7 -18 2 -7 -4 -97 -8 -200 -8 -104 1 -190 -1 -192 -5 -3 -3
13 -5 35 -4 22 1 37 -1 35 -5 -5 -8 -107 -6 -122 3 -6 4 -15 3 -18 -3 -5 -8
-11 -8 -20 0 -7 6 -15 7 -18 3 -3 -5 -92 -8 -197 -8 -105 0 -194 -3 -197 -7
-2 -5 -10 -5 -16 -1 -17 11 -57 11 -63 1 -3 -5 -12 -4 -19 2 -10 8 -15 8 -20
0 -5 -8 -10 -8 -20 0 -10 8 -15 8 -20 0 -5 -8 -10 -8 -20 0 -10 8 -15 8 -20 0
-5 -8 -10 -8 -20 0 -10 8 -15 8 -20 0 -5 -8 -10 -8 -20 0 -10 8 -15 8 -20 0
-5 -8 -10 -8 -20 0 -9 8 -15 8 -20 0 -3 -6 -12 -7 -18 -3 -17 11 -50 11 -64 1
-6 -5 -14 -5 -17 0 -6 10 -46 10 -63 -1 -6 -4 -14 -4 -16 1 -3 4 -83 7 -177 7
-94 0 -174 3 -177 8 -2 4 -11 3 -18 -3 -9 -8 -15 -8 -20 0 -3 6 -12 7 -18 3
-14 -9 -157 -11 -162 -3 -2 4 18 6 45 5 27 -1 47 1 45 5 -8 13 -172 5 -189 -9
-14 -12 -17 -12 -14 -1 2 11 -15 14 -77 15 -44 0 -85 4 -92 8 -6 4 -15 2 -18
-3 -5 -8 -14 -5 -27 7 -13 11 -18 13 -16 4 2 -7 -5 -15 -15 -16 -9 -2 -15 1
-12 5 3 5 1 12 -5 15 -6 4 -9 1 -8 -6 2 -8 -10 -13 -34 -14 -20 -1 -35 2 -32
6 2 4 13 6 24 4 12 -2 18 -1 16 4 -6 9 -87 8 -103 -2 -6 -4 -15 -3 -18 3 -5 8
-11 8 -20 0 -7 -6 -16 -7 -18 -3 -3 5 -47 8 -97 8 -50 0 -93 2 -96 6 -2 4 10
5 26 4 16 -1 28 1 25 4 -7 13 -92 6 -109 -8 -14 -12 -17 -12 -14 -1 2 11 -12
14 -58 15 -37 0 -68 5 -78 14 -14 12 -17 12 -14 1 2 -9 -9 -14 -34 -15 -20 -1
-35 2 -32 6 2 4 13 6 24 4 12 -2 18 0 16 4 -8 12 -52 7 -70 -9 -14 -11 -17
-11 -14 0 2 11 -16 14 -89 15 -50 0 -94 3 -98 6 -3 4 8 5 25 4 17 -1 28 0 25
3 -9 9 -75 10 -69 1 2 -4 0 -11 -6 -14 -6 -4 -9 -1 -8 6 2 9 -10 13 -38 14
-22 0 -49 6 -58 14 -14 12 -17 12 -14 1 2 -9 -9 -14 -34 -15 -20 -1 -35 2 -32
6 2 4 13 6 24 4 12 -2 18 0 16 4 -6 10 -46 8 -63 -2 -6 -4 -14 -4 -17 1 -3 5
-28 8 -56 7 -28 -1 -53 2 -55 5 -3 4 9 6 25 5 16 -1 28 1 25 4 -2 4 -21 6 -42
5 -21 -1 -48 -2 -61 -3 -13 -1 -21 -5 -18 -9 2 -4 -22 -7 -55 -7 -33 0 -63 -3
-66 -8 -2 -4 -10 -4 -16 1 -7 5 -34 8 -60 7 -27 0 -50 2 -52 6 -3 3 9 5 25 4
16 -1 28 1 25 4 -2 4 -32 6 -67 6 -45 -2 -68 3 -81 14 -14 12 -18 12 -15 2 2
-9 -7 -15 -24 -16 -15 -1 -25 2 -22 7 3 4 10 5 16 2 7 -4 8 -2 4 4 -5 8 -16 5
-37 -10 -21 -16 -44 -22 -88 -23 -33 -1 -58 2 -55 6 2 4 13 6 24 4 12 -2 18
-1 16 4 -3 4 -22 7 -43 6 -22 -1 -46 5 -56 14 -15 12 -18 12 -15 1 2 -9 -8
-14 -34 -15 -20 -1 -35 2 -32 6 2 4 13 6 24 4 12 -2 18 0 16 4 -7 10 -47 8
-65 -3 -10 -7 -12 -5 -6 5 4 8 -10 -2 -31 -22 -32 -29 -46 -35 -80 -35 -22 1
-49 7 -58 15 -13 11 -16 11 -14 2 2 -8 -5 -15 -14 -16 -10 -2 -16 1 -15 7 1 6
-6 12 -16 13 -15 3 -16 1 -5 -13 12 -16 11 -16 -7 -1 -13 10 -37 15 -67 14
-26 0 -45 2 -42 6 2 4 13 6 24 4 12 -2 18 -1 16 4 -3 4 -22 7 -43 6 -22 -1
-46 5 -58 14 -17 14 -18 14 -8 1 10 -14 8 -16 -12 -16 -18 0 -22 3 -14 13 8 9
6 11 -11 8 -21 -4 -21 -3 -8 13 9 9 28 40 43 67 69 126 233 309 370 410 229
169 502 279 765 308 19 2 1194 3 2610 3 l2575 -2 110 -26z m-5340 -827 c-9 -8
-36 -10 -30 -2 2 4 11 8 20 8 8 0 13 -3 10 -6z m-741 -22 c3 -3 -5 -5 -19 -5
-13 0 -22 3 -19 7 4 8 30 6 38 -2z m5486 5 c0 -8 -19 -13 -24 -6 -3 5 1 9 9 9
8 0 15 -2 15 -3z m1255 -3 c-9 -8 -36 -10 -30 -2 2 4 11 8 20 8 8 0 13 -3 10
-6z m-1735 -37 c0 -8 -19 -13 -24 -6 -3 5 1 9 9 9 8 0 15 -2 15 -3z m-2956
-22 c3 -5 -1 -9 -9 -9 -8 0 -12 4 -9 9 3 4 7 8 9 8 2 0 6 -4 9 -8z m456 -18
c0 -8 -19 -13 -24 -6 -3 5 1 9 9 9 8 0 15 -2 15 -3z m1700 0 c0 -8 -19 -13
-24 -6 -3 5 1 9 9 9 8 0 15 -2 15 -3z m40 0 c0 -8 -19 -13 -24 -6 -3 5 1 9 9
9 8 0 15 -2 15 -3z m40 0 c0 -8 -19 -13 -24 -6 -3 5 1 9 9 9 8 0 15 -2 15 -3z"/>
<path d="M7845 10491 c3 -3 17 -6 31 -7 13 0 22 2 19 5 -3 3 -17 6 -31 7 -13
0 -22 -2 -19 -5z"/>
<path d="M8865 10469 c5 -7 52 -6 59 2 3 2 -10 5 -29 5 -18 0 -32 -3 -30 -7z"/>
<path d="M4676 10372 c-3 -5 1 -9 9 -9 8 0 12 4 9 9 -3 4 -7 8 -9 8 -2 0 -6
-4 -9 -8z"/>
</g>
</svg>
