<?xml version="1.0" standalone="no"?>
<!DOCTYPE svg PUBLIC "-//W3C//DTD SVG 20010904//EN"
 "http://www.w3.org/TR/2001/REC-SVG-20010904/DTD/svg10.dtd">
<svg version="1.0" xmlns="http://www.w3.org/2000/svg"
 width="1080.000000pt" height="1920.000000pt" viewBox="0 0 1080.000000 1920.000000"
 preserveAspectRatio="xMidYMid meet">

<g transform="translate(0.000000,1920.000000) scale(0.100000,-0.100000)"
fill="#000000" stroke="none">
<path d="M4980 13573 c-46 -2 -89 -8 -96 -14 -7 -5 -54 -14 -106 -18 -51 -5
-106 -14 -121 -20 -16 -6 -45 -11 -65 -11 -20 0 -50 -7 -65 -15 -15 -8 -45
-17 -65 -20 -20 -4 -50 -12 -67 -20 -37 -15 -85 -32 -145 -50 -72 -21 -110
-36 -190 -73 -41 -19 -91 -42 -110 -50 -19 -8 -42 -19 -50 -24 -8 -4 -26 -14
-40 -20 -14 -7 -27 -16 -30 -20 -3 -4 -17 -12 -30 -17 -38 -17 -133 -71 -151
-87 -8 -8 -19 -14 -23 -14 -4 0 -28 -16 -53 -35 -25 -19 -52 -35 -59 -35 -8 0
-14 -5 -14 -10 0 -6 -8 -14 -17 -17 -9 -4 -24 -13 -32 -20 -9 -8 -44 -35 -78
-61 -33 -26 -84 -65 -112 -87 -71 -56 -345 -327 -410 -405 -29 -36 -72 -85
-95 -110 -24 -25 -60 -70 -81 -100 -21 -30 -50 -71 -65 -90 -15 -19 -30 -42
-33 -50 -4 -8 -25 -42 -47 -75 -21 -33 -44 -70 -50 -83 -5 -13 -17 -30 -25
-38 -8 -9 -15 -24 -15 -33 0 -10 -7 -24 -15 -31 -8 -7 -15 -21 -15 -31 0 -9
-7 -24 -15 -32 -7 -8 -17 -26 -20 -40 -4 -15 -13 -31 -21 -38 -8 -6 -14 -21
-14 -33 0 -12 -7 -31 -15 -42 -8 -10 -15 -28 -15 -39 0 -18 -26 -93 -55 -160
-8 -16 -16 -43 -18 -60 -3 -16 -10 -43 -15 -60 -6 -16 -21 -95 -33 -175 -34
-231 -18 -566 31 -650 5 -8 20 -38 34 -66 14 -28 32 -57 41 -64 8 -7 15 -17
15 -23 0 -32 234 -267 265 -267 5 0 16 -6 24 -14 18 -16 96 -60 188 -106 35
-17 65 -36 68 -41 4 -5 16 -9 29 -9 12 0 31 -7 42 -15 10 -8 26 -15 34 -15 8
0 33 -9 55 -20 22 -11 50 -19 61 -20 12 0 27 -7 34 -15 7 -8 22 -15 34 -15 12
0 31 -6 42 -14 11 -8 42 -19 70 -25 52 -10 107 -24 189 -46 28 -7 75 -18 105
-24 30 -5 79 -15 108 -21 28 -5 76 -15 105 -20 28 -6 135 -15 237 -20 102 -5
232 -14 290 -20 58 -5 149 -10 202 -10 53 0 109 -4 123 -10 l26 -10 -4 -107
c-2 -60 -9 -134 -15 -165 -7 -32 -17 -84 -23 -115 -24 -126 -35 -169 -47 -190
-6 -12 -12 -34 -12 -50 0 -16 -6 -37 -14 -48 -7 -11 -16 -40 -19 -65 -3 -25
-13 -59 -21 -75 -9 -17 -16 -42 -16 -56 0 -15 -7 -32 -15 -39 -8 -7 -15 -21
-15 -32 0 -11 -7 -32 -15 -46 -8 -15 -20 -38 -25 -52 -28 -65 -70 -113 -97
-108 -26 5 -83 97 -83 134 0 17 -7 37 -15 44 -8 7 -15 20 -15 29 0 24 -38 91
-63 112 -27 23 -90 24 -111 3 -20 -19 -20 -51 -1 -84 8 -14 14 -34 15 -46 0
-12 9 -31 20 -44 11 -13 20 -32 20 -44 0 -12 7 -30 15 -40 11 -14 15 -47 15
-115 0 -89 -2 -97 -27 -123 -33 -34 -53 -35 -90 -4 -34 29 -54 68 -83 161 -20
66 -29 88 -65 168 -8 17 -19 43 -25 57 -6 14 -19 39 -30 55 -11 17 -23 37 -27
45 -4 8 -24 34 -46 57 -45 47 -89 60 -143 43 -31 -10 -34 -15 -34 -50 0 -21 6
-43 15 -50 8 -7 15 -19 15 -26 0 -8 16 -34 35 -60 19 -25 35 -50 35 -55 0 -6
7 -17 15 -25 8 -9 15 -24 15 -33 0 -10 7 -24 15 -31 7 -6 17 -32 21 -56 3 -24
10 -47 15 -50 17 -10 10 -102 -12 -138 -17 -29 -28 -36 -66 -42 -26 -4 -87 -4
-136 -1 -98 6 -125 21 -153 82 -8 17 -18 37 -23 45 -5 8 -12 22 -15 30 -4 8
-17 33 -31 55 -13 22 -29 52 -36 68 -6 15 -15 27 -20 27 -5 0 -9 5 -9 11 0 16
-72 108 -131 168 -87 86 -145 124 -202 129 -44 4 -52 2 -68 -19 -40 -52 -20
-95 104 -220 114 -116 119 -124 192 -283 8 -17 10 -38 6 -50 -16 -43 -53 -51
-273 -56 l-206 -5 -26 -28 c-25 -27 -33 -62 -18 -82 4 -6 22 -21 40 -34 l34
-24 1746 6 c1067 4 1782 10 1837 16 54 6 368 9 782 8 487 -1 695 1 703 9 19
19 23 77 7 99 -14 18 -29 20 -178 23 -129 3 -167 7 -188 20 -37 24 -41 31 -41
87 0 40 7 60 33 100 76 115 114 163 171 220 84 83 106 113 106 146 0 43 -32
69 -84 69 -36 0 -53 -7 -93 -39 -66 -53 -173 -166 -214 -226 -53 -79 -59 -88
-70 -117 -6 -16 -15 -28 -20 -28 -5 0 -9 -7 -9 -14 0 -15 -26 -67 -69 -138
-17 -29 -35 -42 -79 -58 -50 -19 -64 -20 -132 -11 -100 13 -128 25 -141 58
-13 34 -6 203 9 212 6 3 13 18 17 33 4 15 13 32 21 39 8 6 14 17 14 25 0 7 6
19 13 26 22 24 57 77 57 86 0 5 7 15 15 22 10 8 15 30 15 65 0 51 -1 52 -39
69 -36 17 -41 17 -70 1 -39 -19 -62 -42 -78 -75 -7 -14 -17 -32 -22 -40 -5 -8
-12 -22 -15 -30 -3 -8 -19 -37 -35 -65 -16 -27 -30 -57 -30 -66 -1 -9 -8 -22
-16 -29 -8 -7 -15 -24 -15 -39 0 -15 -6 -35 -14 -46 -7 -11 -16 -41 -20 -67
-4 -25 -14 -52 -21 -58 -8 -7 -15 -20 -15 -28 0 -9 -12 -29 -27 -44 -20 -21
-36 -28 -65 -28 -32 0 -41 5 -63 37 -29 44 -34 113 -10 170 8 19 15 46 15 60
0 13 9 41 20 63 11 22 20 46 20 53 0 8 7 20 15 27 22 18 20 93 -3 113 -30 27
-65 21 -100 -17 -17 -19 -34 -46 -38 -60 -3 -14 -12 -30 -20 -37 -8 -6 -14
-22 -14 -34 0 -12 -7 -28 -15 -35 -8 -7 -15 -27 -15 -45 0 -17 -8 -41 -17 -53
-10 -11 -23 -28 -28 -37 -26 -43 -120 45 -141 131 -4 16 -13 38 -20 49 -8 11
-14 31 -14 45 0 14 -6 34 -14 45 -7 11 -17 35 -21 53 -4 18 -13 45 -21 60 -8
15 -14 43 -14 62 0 19 -7 44 -15 54 -8 11 -15 39 -15 63 0 24 -6 56 -14 71 -8
15 -17 54 -21 86 -4 32 -14 71 -21 85 -8 14 -14 51 -14 81 0 32 -7 63 -15 74
-11 14 -15 46 -15 105 0 80 2 87 27 108 26 23 27 23 362 23 218 0 348 4 371
11 19 6 81 14 137 19 56 4 109 13 117 19 9 7 44 15 78 18 35 3 75 12 90 19 15
8 48 14 73 14 25 0 56 6 68 14 12 7 44 16 70 20 27 3 55 13 63 21 9 8 28 15
43 15 15 0 36 7 47 15 10 8 27 15 37 15 9 0 34 9 54 20 21 11 46 20 56 20 10
0 25 7 33 15 9 8 26 15 38 15 13 0 29 7 36 15 7 8 21 15 31 15 10 0 21 4 24
10 8 13 103 60 121 60 8 0 14 4 14 9 0 5 21 21 48 37 104 60 282 220 298 267
3 9 9 17 12 17 11 0 74 130 88 180 4 14 11 28 16 31 6 4 13 28 16 55 2 27 11
58 18 69 20 29 19 430 -1 465 -8 14 -15 43 -15 65 0 22 -9 58 -20 80 -11 22
-20 56 -20 75 0 19 -7 44 -15 54 -8 11 -15 34 -15 51 0 17 -6 39 -14 50 -7 11
-17 39 -21 63 -4 23 -11 42 -16 42 -5 0 -12 12 -15 28 -4 15 -12 38 -19 52
-35 71 -55 119 -55 134 0 9 -4 16 -9 16 -5 0 -21 24 -36 53 -15 28 -33 59 -41
68 -8 8 -14 23 -14 31 0 9 -7 21 -15 28 -8 7 -15 18 -15 25 0 6 -8 21 -17 33
-10 11 -25 30 -33 42 -8 12 -23 33 -32 45 -10 13 -18 26 -18 29 0 5 -34 53
-88 121 -135 173 -160 201 -306 344 -157 154 -160 157 -179 167 -16 10 -110
88 -139 117 -10 9 -22 17 -26 17 -9 0 -44 25 -73 53 -11 9 -21 17 -24 17 -3 0
-18 8 -33 19 -15 10 -54 36 -87 57 -33 21 -62 41 -65 45 -3 4 -18 11 -33 14
-15 4 -30 11 -33 17 -3 5 -16 14 -27 19 -12 5 -35 18 -52 28 -50 32 -216 111
-232 111 -6 0 -16 7 -23 15 -7 8 -21 15 -31 15 -9 0 -24 7 -33 15 -8 8 -25 15
-38 15 -13 0 -32 6 -43 14 -11 7 -39 17 -62 20 -22 4 -49 14 -60 21 -10 8 -30
15 -44 15 -14 0 -34 7 -45 15 -10 8 -30 15 -44 15 -14 0 -36 7 -48 16 -12 8
-48 18 -80 21 -31 2 -74 11 -95 19 -20 8 -65 14 -100 14 -34 1 -80 7 -102 15
-42 15 -413 27 -585 18z m470 -263 c126 -15 213 -30 260 -44 25 -8 66 -17 92
-21 26 -3 50 -10 53 -16 4 -5 16 -9 29 -9 27 0 184 -46 200 -59 6 -5 26 -12
44 -16 17 -3 32 -10 32 -15 0 -5 14 -11 31 -15 32 -7 194 -77 205 -88 4 -3 45
-25 93 -48 47 -23 115 -61 151 -84 36 -23 76 -48 90 -55 28 -15 186 -126 212
-150 9 -8 23 -19 30 -25 49 -38 128 -104 154 -130 18 -16 51 -48 75 -70 103
-96 306 -327 390 -444 83 -116 120 -173 151 -231 20 -36 52 -95 73 -133 20
-37 47 -95 59 -130 12 -34 27 -72 34 -84 7 -12 12 -27 12 -33 0 -7 7 -26 15
-43 19 -42 37 -113 69 -282 21 -105 22 -245 2 -245 -12 0 -103 50 -184 102
-24 15 -146 76 -197 99 -11 5 -27 13 -35 19 -24 15 -79 36 -170 66 -47 15 -89
31 -94 36 -6 4 -19 8 -30 8 -12 1 -39 9 -61 20 -22 11 -50 19 -62 20 -12 0
-34 5 -48 10 -27 10 -107 30 -225 54 -36 8 -81 19 -100 25 -19 6 -50 11 -69
11 -19 0 -60 6 -90 14 -31 8 -99 19 -151 25 -52 6 -135 16 -185 21 -49 6 -147
17 -216 25 -69 8 -171 15 -225 15 -55 0 -180 7 -279 15 -203 17 -630 20 -719
5 -32 -5 -136 -12 -230 -15 -94 -3 -220 -12 -281 -20 -60 -8 -153 -19 -205
-25 -193 -22 -306 -39 -334 -49 -15 -6 -44 -11 -64 -11 -21 0 -53 -5 -72 -11
-19 -6 -64 -17 -100 -25 -36 -7 -98 -20 -138 -29 -41 -8 -78 -17 -83 -21 -5
-3 -30 -9 -57 -14 -43 -8 -117 -30 -167 -52 -11 -4 -61 -21 -110 -37 -50 -16
-126 -45 -170 -66 -70 -33 -148 -68 -195 -89 -8 -3 -42 -24 -75 -46 -33 -22
-70 -44 -82 -49 -11 -5 -24 -15 -28 -20 -7 -12 -62 -15 -68 -3 -5 8 19 166 34
227 5 22 16 67 24 100 40 177 75 284 121 367 7 14 14 31 14 37 0 13 72 162 98
203 9 14 30 48 46 75 31 50 131 190 167 232 11 13 48 58 82 100 88 107 344
361 462 459 101 82 298 222 314 222 4 0 28 15 52 33 24 19 58 40 74 49 208
107 312 158 324 158 8 0 32 8 55 19 81 37 112 48 196 70 162 43 185 49 230 61
57 14 205 39 295 49 98 11 365 12 455 1z m-571 -2178 c26 -37 47 -95 78 -217
14 -55 29 -113 35 -130 6 -16 14 -54 19 -84 5 -29 14 -62 19 -72 25 -46 32
-284 26 -834 -4 -308 -11 -589 -16 -625 -11 -91 -29 -197 -42 -250 -6 -25 -16
-81 -22 -125 -6 -44 -15 -86 -20 -93 -4 -7 -11 -37 -16 -65 -16 -108 -41 -201
-64 -239 l-24 -40 -17 25 c-15 23 -15 41 -4 189 6 90 16 167 20 172 5 6 8 26
8 45 -1 20 -3 29 -6 19 -6 -22 -32 -31 -39 -13 -4 8 -4 30 -1 48 19 120 29
178 39 217 6 25 14 68 18 95 4 28 13 75 19 105 28 143 41 402 41 790 0 319 -3
407 -15 453 -8 32 -15 65 -15 73 0 36 -100 233 -148 293 -20 25 -78 88 -130
140 -136 139 -130 146 125 149 l112 2 20 -28z m510 15 c11 -14 2 -59 -27 -142
-20 -55 -42 -149 -54 -230 -10 -61 -13 -360 -13 -1246 0 -1152 0 -1167 -20
-1189 -21 -23 -66 -50 -85 -50 -5 0 -10 6 -10 13 0 7 -9 21 -21 30 -20 18 -21
25 -15 175 3 86 9 587 12 1112 7 1035 5 1085 -50 1265 -27 89 -56 189 -62 217
-13 57 -9 58 169 58 125 0 167 -3 176 -13z m505 -3 c31 -12 15 -39 -81 -135
-118 -116 -142 -144 -183 -210 -79 -129 -130 -356 -130 -585 -1 -187 21 -649
35 -769 8 -66 17 -145 20 -175 9 -93 25 -193 40 -245 31 -114 45 -176 45 -200
0 -22 -3 -25 -25 -19 -25 6 -25 6 -25 -63 0 -45 5 -76 15 -89 8 -11 15 -42 15
-74 1 -30 7 -73 15 -95 20 -54 19 -65 -8 -99 -19 -24 -29 -28 -50 -22 -33 8
-67 80 -67 142 0 24 -6 63 -14 86 -8 24 -17 70 -20 103 -4 33 -13 89 -21 125
-24 111 -46 298 -57 485 -15 270 -22 1126 -9 1205 6 36 15 92 20 125 17 104
42 210 52 220 5 5 9 18 9 28 0 10 6 33 14 50 8 18 26 71 41 120 15 48 34 92
43 98 18 10 295 5 326 -7z m-1464 -151 c139 -127 171 -171 113 -157 -82 19
-156 46 -263 97 -243 113 -254 121 -224 152 22 21 69 30 181 33 l53 2 140
-127z m1914 103 c41 -14 61 -30 53 -43 -6 -9 -46 -30 -122 -63 -27 -12 -57
-26 -65 -31 -122 -72 -328 -137 -344 -110 -4 6 4 21 18 33 75 68 150 133 174
151 15 12 44 36 66 55 38 34 39 34 111 27 40 -3 89 -12 109 -19z m-2506 -73
c15 -10 52 -36 82 -58 30 -22 80 -53 110 -68 64 -33 92 -49 111 -63 13 -9 42
-21 174 -71 22 -8 54 -21 70 -28 17 -8 59 -26 95 -40 36 -14 79 -33 97 -41 17
-8 36 -14 42 -14 15 0 34 -39 27 -57 -7 -16 -53 -14 -156 7 -30 6 -89 18 -130
27 -138 28 -220 54 -337 105 -23 10 -45 18 -49 18 -11 0 -281 137 -319 161
-16 10 -39 24 -51 30 -27 14 -58 66 -44 74 5 3 49 10 97 16 48 5 89 12 92 14
10 11 64 4 89 -12z m2922 2 c117 -18 120 -19 120 -45 0 -24 -45 -58 -145 -108
-44 -21 -93 -47 -110 -55 -16 -9 -50 -25 -75 -35 -25 -11 -61 -27 -82 -36 -20
-9 -43 -16 -51 -16 -9 0 -18 -4 -22 -9 -3 -5 -20 -13 -38 -16 -17 -4 -43 -13
-57 -20 -42 -21 -224 -71 -319 -87 -29 -5 -62 -13 -72 -18 -24 -13 -116 -13
-124 1 -13 19 29 51 125 96 150 70 183 84 270 116 84 31 313 150 359 186 40
31 90 60 107 61 6 0 57 -7 114 -15z m431 -105 c135 -36 184 -52 239 -80 47
-23 -19 -60 -185 -101 -22 -6 -48 -14 -57 -19 -9 -6 -36 -13 -60 -16 -24 -4
-51 -11 -61 -16 -10 -5 -55 -15 -101 -23 -46 -7 -97 -20 -114 -29 -61 -31 -64
-83 -6 -111 31 -14 40 -15 96 -1 35 9 88 20 118 25 105 19 185 39 240 61 30
12 71 26 90 31 19 6 49 17 67 25 17 8 37 14 45 14 8 0 31 9 53 20 52 26 80 25
140 -6 50 -26 75 -49 75 -68 0 -21 -99 -65 -215 -97 -109 -30 -197 -52 -240
-61 -27 -5 -58 -14 -67 -19 -10 -5 -50 -14 -89 -19 -39 -6 -75 -13 -80 -16 -5
-3 -59 -12 -121 -20 -62 -9 -142 -20 -178 -24 -36 -5 -92 -10 -125 -10 -33 0
-87 -7 -120 -15 -33 -8 -88 -15 -123 -15 -35 0 -122 -7 -195 -15 -79 -9 -193
-14 -282 -13 -149 3 -150 3 -153 27 -8 51 6 69 61 86 28 8 84 20 122 26 39 6
75 15 80 19 6 5 28 11 50 15 22 4 45 11 50 15 9 6 53 20 230 72 66 20 99 32
187 72 20 9 39 16 42 16 9 0 166 78 206 101 19 12 58 33 85 47 28 14 75 45
105 67 42 32 100 69 116 75 1 0 35 -9 75 -20z m-3755 -43 c38 -30 103 -73 144
-97 41 -24 77 -46 80 -49 6 -7 129 -67 205 -101 28 -12 58 -26 67 -31 30 -15
132 -47 173 -55 22 -3 52 -13 67 -20 15 -8 34 -14 42 -14 8 0 27 -5 43 -12 36
-15 122 -36 198 -49 33 -6 83 -16 110 -24 28 -7 62 -16 78 -19 24 -6 27 -11
27 -44 0 -21 -5 -43 -12 -50 -17 -17 -243 -15 -398 3 -69 8 -154 15 -190 15
-36 0 -101 6 -145 14 -44 8 -132 19 -195 25 -256 23 -365 39 -495 72 -22 5
-69 16 -105 24 -224 48 -409 103 -449 134 -34 26 -21 54 44 90 60 34 101 39
148 16 42 -19 112 -44 162 -57 22 -6 45 -14 50 -19 6 -4 28 -10 50 -14 22 -4
49 -12 59 -18 26 -13 236 -60 334 -74 53 -7 82 15 82 63 0 43 -38 71 -111 80
-30 4 -62 11 -72 16 -10 5 -39 13 -65 18 -26 4 -60 13 -77 18 -16 6 -68 21
-115 33 -138 36 -198 79 -132 95 15 4 32 11 38 16 22 16 211 65 260 67 24 1
49 -12 100 -52z m-811 -422 c17 -7 75 -23 130 -35 108 -24 134 -31 210 -55 28
-9 76 -21 108 -26 33 -5 63 -12 68 -15 9 -5 69 -15 299 -49 52 -8 111 -19 130
-24 19 -6 56 -11 82 -11 26 0 80 -6 120 -14 70 -14 227 -27 562 -46 235 -14
319 -20 328 -26 11 -7 10 -71 0 -78 -19 -11 -355 -16 -472 -6 -69 6 -193 15
-275 20 -83 5 -162 13 -175 18 -14 5 -63 12 -110 16 -105 8 -283 33 -370 51
-36 8 -81 17 -100 20 -19 4 -53 12 -75 20 -22 7 -69 21 -105 30 -248 65 -405
131 -452 189 -16 20 -16 22 0 34 18 14 46 10 97 -13z m5283 -15 c-3 -21 -76
-70 -148 -100 -14 -6 -38 -17 -55 -25 -39 -18 -163 -55 -187 -55 -11 0 -31 -6
-46 -14 -15 -7 -48 -16 -74 -20 -26 -4 -50 -11 -53 -15 -2 -5 -26 -12 -52 -15
-27 -4 -59 -11 -73 -16 -32 -12 -201 -38 -355 -55 -66 -7 -127 -15 -135 -19
-8 -3 -80 -10 -160 -16 -80 -5 -212 -14 -295 -20 -198 -15 -473 -9 -486 11
-12 20 -11 42 4 62 10 13 55 19 272 32 381 23 521 35 608 51 42 8 96 14 120
14 23 0 78 7 122 15 185 34 312 55 334 55 27 0 127 24 278 66 29 8 78 21 108
29 85 24 155 43 210 59 55 15 68 10 63 -24z m-4523 -431 c5 -5 47 -9 95 -9 47
0 112 -7 145 -15 33 -8 93 -14 134 -15 40 0 148 -7 240 -14 91 -8 263 -20 381
-26 287 -14 280 -13 280 -54 l0 -33 -67 -7 c-92 -8 -594 21 -633 38 -8 3 -53
10 -100 15 -139 15 -301 41 -355 56 -27 7 -67 16 -87 20 -24 4 -38 11 -38 20
0 11 -12 15 -39 15 -52 0 -78 9 -59 22 15 10 89 1 103 -13z m3809 12 c7 -10
-17 -21 -46 -21 -12 0 -39 -8 -62 -19 -52 -24 -144 -43 -386 -80 -41 -7 -115
-18 -165 -26 -49 -8 -175 -19 -280 -24 -483 -26 -465 -27 -465 19 0 15 6 32
13 37 16 14 111 21 347 28 107 4 227 10 267 15 40 6 143 12 230 16 87 3 171
10 188 15 16 5 72 14 123 19 52 6 101 14 110 20 21 12 119 13 126 1z"/>
<path d="M4950 13120 c-30 -32 -100 -134 -100 -145 0 -6 -105 -229 -131 -277
-5 -10 -9 -23 -9 -30 -1 -7 -9 -31 -20 -53 -11 -22 -20 -47 -20 -55 0 -8 -7
-24 -15 -34 -8 -11 -15 -28 -15 -38 0 -9 -6 -32 -14 -50 -7 -18 -23 -76 -35
-128 -12 -52 -28 -120 -36 -150 -35 -145 -54 -258 -48 -292 6 -32 48 -52 87
-42 29 7 66 66 66 106 0 46 66 333 89 383 13 30 51 158 51 172 0 13 4 23 85
208 29 66 107 223 139 281 49 88 51 136 6 159 -40 21 -48 19 -80 -15z"/>
<path d="M5385 13116 c-18 -27 -13 -63 15 -111 10 -16 36 -65 59 -109 22 -43
44 -83 49 -90 4 -6 17 -31 27 -56 10 -25 27 -64 37 -87 10 -23 18 -48 18 -55
0 -8 4 -18 9 -24 23 -23 99 -264 123 -389 5 -27 13 -54 18 -60 5 -5 11 -28 15
-50 4 -22 13 -62 21 -89 8 -27 14 -63 14 -78 0 -42 27 -87 56 -94 36 -9 71 10
78 43 11 48 -28 274 -78 453 -48 174 -100 320 -159 443 -26 54 -47 104 -47
111 0 8 -7 19 -15 26 -8 7 -15 17 -15 22 0 15 -68 127 -107 176 -28 35 -40 42
-68 42 -25 0 -39 -6 -50 -24z"/>
<path d="M4575 13071 c-36 -22 -47 -34 -127 -131 -33 -41 -65 -76 -69 -78 -5
-2 -9 -8 -9 -14 0 -9 -51 -77 -90 -120 -27 -31 -40 -47 -40 -52 0 -7 -49 -79
-58 -86 -8 -5 -15 -18 -64 -100 -17 -30 -34 -57 -37 -60 -3 -3 -13 -19 -22
-35 -8 -17 -24 -48 -36 -70 -50 -96 -133 -274 -133 -287 0 -8 -4 -18 -9 -23
-5 -6 -21 -50 -36 -100 -16 -49 -31 -94 -35 -100 -4 -5 -11 -26 -15 -45 -4
-19 -13 -54 -21 -78 -8 -23 -14 -72 -14 -107 0 -58 3 -66 25 -81 16 -10 34
-14 50 -10 32 8 74 75 84 135 17 98 68 275 88 306 7 11 13 27 13 36 0 9 7 22
15 29 8 7 15 19 15 27 0 21 63 163 86 193 6 8 31 53 55 100 24 47 47 90 51 95
32 39 78 105 78 111 0 23 268 369 334 433 45 42 50 90 11 115 -32 21 -53 20
-90 -3z"/>
<path d="M5778 13069 c-12 -7 -18 -22 -18 -46 0 -36 31 -84 103 -158 16 -16
55 -64 85 -105 31 -41 58 -77 62 -80 7 -6 89 -128 134 -199 16 -25 50 -77 75
-116 25 -38 62 -104 83 -145 21 -41 41 -79 46 -85 13 -17 81 -178 88 -210 4
-16 10 -35 15 -40 20 -26 65 -177 84 -278 15 -82 35 -107 85 -107 57 0 74 18
73 80 0 28 -7 68 -16 88 -8 21 -25 71 -37 112 -35 115 -60 190 -70 208 -12 22
-61 131 -94 209 -14 34 -39 84 -56 113 -16 28 -30 54 -30 58 0 4 -16 31 -35
61 -19 29 -35 54 -35 56 0 11 -142 213 -218 310 -149 190 -181 227 -226 263
-30 23 -70 28 -98 11z"/>
<path d="M6218 12971 c-18 -17 -26 -91 -10 -91 4 0 21 -13 37 -28 17 -15 64
-55 107 -89 268 -212 610 -578 684 -733 4 -8 22 -35 38 -60 30 -45 41 -65 87
-165 13 -27 28 -57 35 -65 6 -8 21 -42 34 -75 13 -33 29 -74 36 -92 8 -17 14
-41 14 -53 0 -11 6 -33 14 -48 7 -15 17 -45 20 -68 9 -51 59 -114 90 -114 37
0 70 43 68 91 -2 43 -34 163 -57 214 -57 125 -75 166 -75 171 0 7 -38 95 -50
114 -4 8 -29 55 -54 103 -26 49 -60 107 -77 130 -16 23 -55 78 -87 122 -65 91
-69 96 -177 219 -107 121 -272 284 -365 359 -41 34 -77 64 -80 67 -8 10 -113
76 -147 94 -40 20 -63 20 -85 -3z"/>
<path d="M4069 12931 c-41 -27 -83 -57 -94 -67 -11 -11 -47 -39 -80 -63 -66
-49 -321 -300 -375 -370 -19 -24 -49 -60 -66 -80 -49 -57 -158 -213 -198 -282
-20 -35 -41 -71 -46 -79 -10 -14 -60 -118 -100 -205 -31 -68 -49 -115 -90
-235 -62 -183 -56 -260 19 -260 41 0 68 37 91 121 22 85 48 159 60 174 4 5 13
26 18 45 20 67 42 119 73 177 17 32 41 76 52 98 21 41 87 146 97 155 3 3 17
23 30 45 95 159 367 451 580 620 41 33 82 67 90 75 9 8 33 28 53 45 31 25 37
36 37 67 0 27 -6 41 -22 52 -34 24 -49 20 -129 -33z"/>
<path d="M5189 12832 l-34 -17 -3 -580 -2 -580 21 -17 c33 -28 85 -23 106 8
15 24 16 73 14 586 -1 308 -5 567 -8 575 -3 7 -18 20 -33 28 -24 12 -31 12
-61 -3z"/>
<path d="M3638 12148 c-26 -22 -83 -117 -141 -236 -31 -63 -60 -119 -65 -125
-5 -7 -12 -23 -15 -37 -6 -26 -31 -101 -46 -135 -18 -39 -43 -130 -43 -153 -1
-56 78 -86 119 -45 11 11 32 60 48 109 15 49 31 93 36 98 5 6 9 16 9 24 0 8 9
36 21 61 12 25 27 60 34 76 33 73 69 144 101 200 59 104 63 124 28 160 -19 18
-64 20 -86 3z"/>
<path d="M6700 12136 c-9 -24 4 -95 19 -106 7 -4 34 -55 122 -230 15 -30 44
-98 64 -150 20 -52 46 -120 58 -150 11 -30 30 -65 41 -78 27 -31 72 -26 99 10
21 28 21 29 3 100 -11 40 -23 77 -27 82 -5 6 -9 16 -9 24 0 8 -18 53 -41 100
-22 48 -48 103 -56 122 -9 19 -20 42 -24 50 -5 8 -15 29 -23 45 -41 82 -104
185 -121 197 -5 4 -29 8 -53 8 -36 0 -44 -4 -52 -24z"/>
<path d="M6083 12123 c-36 -25 -26 -101 31 -233 11 -27 36 -124 50 -195 29
-151 34 -162 75 -172 46 -12 72 -3 95 32 20 30 22 19 -29 200 -8 28 -23 84
-35 125 -44 161 -61 204 -90 232 -33 31 -64 35 -97 11z"/>
<path d="M4272 12120 c-23 -10 -72 -99 -72 -132 0 -10 -6 -32 -14 -50 -26 -62
-75 -278 -78 -345 -3 -54 18 -77 68 -77 42 0 84 39 84 78 0 13 7 43 15 66 8
23 15 56 15 73 0 17 7 53 15 81 8 28 24 84 35 123 24 80 30 157 15 172 -16 15
-58 21 -83 11z"/>
<path d="M4892 12123 c-12 -2 -27 -14 -33 -25 -15 -28 -49 -294 -49 -385 0
-80 10 -93 69 -93 64 0 78 49 87 309 l7 180 -27 11 c-15 5 -28 9 -29 9 -1 -1
-12 -4 -25 -6z"/>
<path d="M5464 12095 c-14 -22 -16 -41 -10 -133 7 -107 23 -257 32 -300 6 -30
44 -46 87 -38 51 9 71 55 57 127 -6 30 -15 104 -19 166 -7 88 -14 121 -32 155
-21 37 -29 43 -61 46 -30 3 -40 -1 -54 -23z"/>
<path d="M2848 11823 c-14 -16 -45 -73 -68 -128 -22 -55 -47 -113 -55 -130
-37 -83 -71 -197 -80 -270 -6 -42 -3 -54 15 -77 26 -34 59 -36 87 -5 28 30 53
81 53 109 0 13 7 36 15 51 8 15 17 44 21 64 4 20 13 48 20 62 8 14 14 32 14
39 0 8 23 60 50 117 71 146 66 195 -17 195 -19 0 -39 -10 -55 -27z"/>
<path d="M7492 11838 c-25 -25 -13 -87 37 -191 62 -131 121 -304 121 -356 0
-28 70 -101 97 -101 10 0 30 10 42 22 21 19 23 28 18 85 -2 35 -9 69 -15 76
-5 6 -13 28 -16 47 -4 19 -13 49 -21 65 -7 17 -21 50 -31 75 -33 84 -55 135
-64 150 -5 8 -21 35 -36 60 -15 25 -34 53 -42 63 -17 20 -72 23 -90 5z"/>
<path d="M1245 7760 c-329 -43 -495 -208 -495 -490 0 -265 144 -424 435 -481
45 -9 131 -14 240 -13 190 1 272 17 384 73 l61 31 15 -36 c8 -20 15 -40 15
-45 0 -5 38 -9 85 -9 l85 0 0 240 0 240 -269 0 -268 0 -6 -77 c-2 -43 -3 -81
0 -85 2 -5 39 -8 81 -8 l77 0 -25 -19 c-44 -34 -117 -51 -220 -51 -114 0 -169
16 -219 63 -49 47 -71 100 -71 177 0 152 97 240 264 240 92 0 135 -13 191 -55
l45 -35 210 0 c116 0 210 3 210 6 0 3 -11 29 -25 59 -90 189 -315 288 -645
284 -52 -1 -122 -5 -155 -9z"/>
<path d="M2130 7271 l0 -481 200 0 200 0 0 140 0 140 145 0 c255 0 295 -21
348 -180 l32 -95 743 -3 743 -2 -3 117 -3 118 -312 5 -312 5 314 240 315 240
0 89 0 89 83 -78 c45 -44 151 -146 235 -228 l152 -148 0 -225 0 -224 200 0
200 0 0 229 0 228 255 248 255 247 0 -477 0 -477 498 5 c528 5 590 10 718 58
101 38 143 89 159 196 16 102 -51 173 -205 220 -9 2 1 11 25 22 52 23 102 81
111 127 17 91 -18 203 -76 244 -37 26 -117 55 -196 71 -40 8 -287 13 -765 16
l-706 4 -133 -140 c-73 -78 -136 -141 -141 -141 -4 0 -69 63 -145 140 l-138
140 -748 0 -748 0 0 -117 0 -118 -30 51 c-47 82 -140 132 -310 165 -32 7 -245
13 -507 16 l-453 5 0 -481z m860 213 c64 -37 66 -110 3 -146 -42 -25 -178 -39
-333 -36 l-125 3 -3 103 -3 104 213 -4 c193 -3 216 -5 248 -24z m1060 22 c0
-2 -139 -110 -310 -241 l-310 -238 -1 -96 c-1 -86 -2 -92 -11 -51 -29 140 -64
204 -128 230 -34 14 -38 26 -11 35 43 13 102 67 128 117 25 47 28 63 28 151
l0 97 308 0 c169 0 307 -2 307 -4z m2709 -14 c43 -22 56 -42 47 -76 -12 -50
-56 -59 -283 -64 l-203 -4 0 81 0 81 203 0 c173 0 207 -3 236 -18z m48 -328
c41 -31 44 -86 7 -111 -25 -16 -56 -18 -261 -21 l-233 -3 0 81 0 82 229 -4
c215 -3 231 -4 258 -24z"/>
<path d="M7330 7270 l0 -480 580 0 581 0 -3 118 -3 117 -377 3 -378 2 0 75 0
75 295 0 295 0 0 90 0 90 -295 0 -295 0 0 75 0 75 350 0 350 0 0 120 0 120
-550 0 -550 0 0 -480z"/>
<path d="M8520 7270 l0 -480 200 0 200 0 0 79 0 79 121 82 120 82 72 -55 c40
-31 133 -103 207 -161 l135 -106 259 0 c253 0 258 0 235 18 -13 10 -157 113
-319 229 -162 116 -305 219 -317 229 l-22 19 338 230 338 230 -259 3 -258 2
-320 -220 c-176 -121 -322 -220 -325 -220 -3 0 -5 99 -5 220 l0 220 -200 0
-200 0 0 -480z"/>
</g>
</svg>
